<svg xmlns="http://www.w3.org/2000/svg" viewBox="0 0 100 100" width="512" height="512" fill="none">
  <defs>
    <linearGradient id="cmBg512" x1="0%" y1="0%" x2="100%" y2="100%">
      <stop offset="0%" stop-color="#151d2e" />
      <stop offset="100%" stop-color="#080c16" />
    </linearGradient>
    <linearGradient id="cmGrad512" x1="10%" y1="50%" x2="90%" y2="50%">
      <stop offset="0%" stop-color="#38bdf8" />
      <stop offset="42%" stop-color="#06b6d4" />
      <stop offset="68%" stop-color="#f59e0b" />
      <stop offset="100%" stop-color="#f97316" />
    </linearGradient>
    <filter id="cmGlow512" x="-20%" y="-20%" width="140%" height="140%">
      <feDropShadow dx="0" dy="1" stdDeviation="2" flood-color="#06b6d4" flood-opacity="0.4" />
      <feDropShadow dx="0" dy="1" stdDeviation="2" flood-color="#f59e0b" flood-opacity="0.35" />
    </filter>
  </defs>

  <rect width="100" height="100" rx="26" fill="url(#cmBg512)" stroke="rgba(255,255,255,0.18)" stroke-width="2" />

  <path
    d="M 38 35 C 20 35, 13 44, 13 52 C 13 61, 20 69, 38 69 C 45 69, 49 61, 53 48 C 55 41, 58 35, 63 35 C 67 35, 70 42, 73 50 C 76 42, 79 35, 84 35 C 88 35, 90 40, 90 48 L 90 69"
    stroke="url(#cmGrad512)"
    stroke-width="8"
    stroke-linecap="round"
    stroke-linejoin="round"
    filter="url(#cmGlow512)"
  />

  <path
    d="M 38 35 C 20 35, 13 44, 13 52 C 13 61, 20 69, 38 69 C 45 69, 49 61, 53 48 C 55 41, 58 35, 63 35 C 67 35, 70 42, 73 50 C 76 42, 79 35, 84 35 C 88 35, 90 40, 90 48 L 90 69"
    stroke="#ffffff"
    stroke-width="2"
    stroke-linecap="round"
    stroke-linejoin="round"
    stroke-opacity="0.9"
  />
</svg>
